<svg width="24" height="24" viewBox="0 0 24 24" fill="none" xmlns="http://www.w3.org/2000/svg">
<path fill-rule="evenodd" clip-rule="evenodd" d="M3 5.5C3 4.39543 3.89543 3.5 5 3.5H9C10.1046 3.5 11 4.39543 11 5.5V9.5C11 10.6046 10.1046 11.5 9 11.5H5C3.89543 11.5 3 10.6046 3 9.5V5.5ZM5 4.5C4.44772 4.5 4 4.94772 4 5.5V9.5C4 10.0523 4.44772 10.5 5 10.5H9C9.55228 10.5 10 10.0523 10 9.5V5.5C10 4.94772 9.55228 4.5 9 4.5H5Z" fill="#6C757D"/>
<path fill-rule="evenodd" clip-rule="evenodd" d="M3 15.5C3 14.3954 3.89543 13.5 5 13.5H9C10.1046 13.5 11 14.3954 11 15.5V19.5C11 20.6046 10.1046 21.5 9 21.5H5C3.89543 21.5 3 20.6046 3 19.5V15.5ZM5 14.5C4.44772 14.5 4 14.9477 4 15.5V19.5C4 20.0523 4.44772 20.5 5 20.5H9C9.55228 20.5 10 20.0523 10 19.5V15.5C10 14.9477 9.55228 14.5 9 14.5H5Z" fill="#6C757D"/>
<path fill-rule="evenodd" clip-rule="evenodd" d="M13 5.5C13 4.39543 13.8954 3.5 15 3.5H19C20.1046 3.5 21 4.39543 21 5.5V9.5C21 10.6046 20.1046 11.5 19 11.5H15C13.8954 11.5 13 10.6046 13 9.5V5.5ZM15 4.5C14.4477 4.5 14 4.94772 14 5.5V9.5C14 10.0523 14.4477 10.5 15 10.5H19C19.5523 10.5 20 10.0523 20 9.5V5.5C20 4.94772 19.5523 4.5 19 4.5H15Z" fill="#6C757D"/>
<path fill-rule="evenodd" clip-rule="evenodd" d="M13 15.5C13 14.3954 13.8954 13.5 15 13.5H19C20.1046 13.5 21 14.3954 21 15.5V19.5C21 20.6046 20.1046 21.5 19 21.5H15C13.8954 21.5 13 20.6046 13 19.5V15.5ZM15 14.5C14.4477 14.5 14 14.9477 14 15.5V19.5C14 20.0523 14.4477 20.5 15 20.5H19C19.5523 20.5 20 20.0523 20 19.5V15.5C20 14.9477 19.5523 14.5 19 14.5H15Z" fill="#6C757D"/>
</svg>
